<svg xmlns="http://www.w3.org/2000/svg" width="150" height="150">
  <path fill="#ff5656" d="M0 0h150v150H0z"/>
  <path fill="#fff" stroke="#fff" stroke-width="3" d="M113.6 79c-1.2-10.3-4.2-28.2-11.3-36.5-2.3-3.3-8.7-8.3-16.7-4.5l-3 1.8c-2.1 1.3-4 2.5-6.2 2.5-2 0-4-1.2-6-2.5-1-.6-2-1.3-3.1-1.8-8-3.8-14.4 1.2-16.7 4.5-7 8.3-10.1 26.2-11.3 36.5l-2.2.4c-9.8 2-21.4 5.8-21.4 12 0 5.8 10 9.4 18.5 11.4 11.3 2.7 26.3 4.2 42.2 4.2 16 0 31-1.5 42.3-4.2 8.4-2 18.5-5.6 18.5-11.4 0-6.6-12.6-10.4-23.6-12.4zm-70.8-4.3c6 1.7 19 2.9 33.6 2.9a147 147 0 0 0 33.7-3c.8 5.8 1.2 10.4 1.2 11.7-.5.4-2.6 1.5-10.7 2.4a213.7 213.7 0 0 1-48.2 0c-8.2-1-10.3-2-10.9-2.4.1-1.3.5-5.9 1.3-11.6zm10-30.4S58.6 37 66 40.7c1 .4 1.8 1 2.8 1.6 2.2 1.3 4.7 3 7.6 3 3 0 5.5-1.7 7.7-3l2.8-1.6c7.3-3.6 13.1 3.6 13.1 3.6 5.1 6 8 17.8 9.6 27.4a141 141 0 0 1-33.2 3 141 141 0 0 1-33.1-3c1.6-9.6 4.5-21.4 9.6-27.4zM118 100c-11 2.6-25.8 4-41.6 4-15.7 0-30.4-1.4-41.5-4-12-2.9-16.3-6.3-16.3-8.6 0-2.4 5-6.2 19-9.1L39 82l-.4 4.6c0 1.7 1.4 3.5 12 4.9 6.9.9 16 1.4 25.8 1.4s19-.5 26-1.4c10.5-1.4 12-3.2 12-4.9l-.5-4.6c15 3 20.4 6.9 20.4 9.4 0 2.3-4.3 5.7-16.3 8.6z"/>
</svg>
